<svg xmlns="http://www.w3.org/2000/svg" viewBox="0 0 891.22 891.22"><defs><style>.cls-1{fill:#e53112;}.cls-2{fill:#f9ad0a;}.cls-3{fill:#f3f40f;}.cls-4{fill:#4cd71c;}.cls-5{fill:#38b54e;}.cls-6{fill:#de0037;}.cls-7{fill:#db00a0;}.cls-8{fill:#2bd49e;}.cls-9{fill:#1ba0e0;}.cls-10{fill:#1230df;}.cls-11{fill:#6a02e0;fill-rule:evenodd;}.cls-12{fill:#a200e0;}</style></defs><g id="Layer_2" data-name="Layer 2"><g id="Layer_13" data-name="Layer 13"><path class="cls-1" d="M281.51,182.41,213.86,65A447.58,447.58,0,0,0,51.61,237.16L168.89,305A310.31,310.31,0,0,1,281.51,182.41Z"/><path class="cls-2" d="M444,136.05V0A443.45,443.45,0,0,0,213.69,65l67.79,117.4A307.32,307.32,0,0,1,444,136.05Z"/><path class="cls-3" d="M444.31,136.05a307.41,307.41,0,0,1,162.31,46.06L675.06,63.56A443.3,443.3,0,0,0,445.61,0H444v136Z"/><path class="cls-4" d="M719.6,304.72l119.26-68.86a447.38,447.38,0,0,0-163.8-172.3L606.62,182.11A310.29,310.29,0,0,1,719.6,304.72Z"/><path class="cls-5" d="M838.86,235.86,719.6,304.72a307.55,307.55,0,0,1,33.58,140.2c0,6.36-.21,12.67-.59,18.94H890.85q.38-9.08.37-18.25A443.55,443.55,0,0,0,838.86,235.86Z"/><path class="cls-6" d="M135.45,444.92A307.56,307.56,0,0,1,168.87,305L51.58,237.32A443.69,443.69,0,0,0,0,445.61q0,9.18.38,18.25H136C135.66,457.59,135.45,451.28,135.45,444.92Z"/><path class="cls-7" d="M136,463.86H.38a443.13,443.13,0,0,0,67,217.43L185.29,613.2A307.09,307.09,0,0,1,136,463.86Z"/><path class="cls-8" d="M752.59,463.86A307.17,307.17,0,0,1,703.14,613.5L823,682.69a443.09,443.09,0,0,0,67.86-218.83Z"/><path class="cls-9" d="M703.14,613.5A310.3,310.3,0,0,1,590.22,717.2l69,119.57A447.85,447.85,0,0,0,823,682.69Z"/><path class="cls-10" d="M444.31,753.79H444V891.21h1.66a443.62,443.62,0,0,0,213.64-54.45l-69-119.57A307.41,307.41,0,0,1,444.31,753.79Z"/><path class="cls-11" d="M297.85,716.91,229.46,835.37A443.24,443.24,0,0,0,444,891.21V753.78A307.44,307.44,0,0,1,297.85,716.91Z"/><path class="cls-12" d="M185.29,613.2,67.35,681.29A447.83,447.83,0,0,0,229.46,835.37l68.39-118.46A310.36,310.36,0,0,1,185.29,613.2Z"/></g></g></svg>